<svg width="50" height="50" viewBox="0 0 32 33" fill="none" xmlns="http://www.w3.org/2000/svg">
<path d="M0.100098 16.0344C0.100098 7.15699 7.2137 0 16.0031 0C24.7925 0 31.9403 7.15699 31.9403 16.0344C31.9403 24.9118 24.8267 32.0688 16.0031 32.0688C7.2137 32.0344 0.100098 24.8774 0.100098 16.0344ZM16.0031 24.1548C20.4833 24.1548 24.0743 20.5075 24.0743 16.0344C24.0743 11.5613 20.4491 7.91398 16.0031 7.91398C11.5229 7.91398 7.9319 11.5613 7.9319 16.0344C7.9319 20.5075 11.5571 24.1548 16.0031 24.1548Z" fill="#E30D18"/>
<path d="M5.23047 6.43441C8.44527 2.58065 13.8147 0.688178 19.1499 1.85807C22.0569 2.47743 24.7929 4.02581 26.8449 6.43441L23.1513 9.53119C22.6041 8.87742 21.9543 8.32689 21.1677 7.81076C18.5001 5.88388 13.8147 5.78065 10.8393 7.81076C10.0185 8.3613 9.43707 8.87742 8.78727 9.6L5.23047 6.43441Z" fill="white"/>
<path d="M8.78733 22.4C11.2155 25.2903 15.4905 26.529 19.1499 25.1527C20.7231 24.5677 22.1253 23.6731 23.1855 22.4L26.8107 25.5656C23.4591 29.385 18.0213 31.5183 12.5151 30.0731C9.71073 29.385 7.14573 27.8366 5.12793 25.5656L8.78733 22.4Z" fill="white"/>
</svg>
